<?xml version="1.0" encoding="UTF-8" standalone="no"?>
<!-- Uploaded to: SVG Repo, www.svgrepo.com, Generator: SVG Repo Mixer Tools -->

<svg
   fill="#000000"
   width="800px"
   height="800px"
   viewBox="0 0 24 24"
   version="1.1"
   id="svg1"
   sodipodi:docname="logo4ico.svg"
   inkscape:version="1.3.2 (091e20e, 2023-11-25, custom)"
   inkscape:export-filename="logo_ico.png"
   inkscape:export-xdpi="96"
   inkscape:export-ydpi="96"
   xmlns:inkscape="http://www.inkscape.org/namespaces/inkscape"
   xmlns:sodipodi="http://sodipodi.sourceforge.net/DTD/sodipodi-0.dtd"
   xmlns="http://www.w3.org/2000/svg"
   xmlns:svg="http://www.w3.org/2000/svg">
  <defs
     id="defs1" />
  <sodipodi:namedview
     id="namedview1"
     pagecolor="#ffffff"
     bordercolor="#000000"
     borderopacity="0.25"
     inkscape:showpageshadow="2"
     inkscape:pageopacity="0.0"
     inkscape:pagecheckerboard="0"
     inkscape:deskcolor="#d1d1d1"
     inkscape:zoom="0.76062501"
     inkscape:cx="1012.9827"
     inkscape:cy="383.23746"
     inkscape:window-width="2560"
     inkscape:window-height="1494"
     inkscape:window-x="-11"
     inkscape:window-y="-11"
     inkscape:window-maximized="1"
     inkscape:current-layer="svg1" />
  <circle
     style="fill:#cccccc;stroke-width:0.731788"
     id="path2"
     cx="12.049302"
     cy="11.733772"
     r="11.615447" />
  <path
     fill-rule="evenodd"
     d="M12 2.5c-3.81 0-6.5 2.743-6.5 6.119 0 1.536.632 2.572 1.425 3.56.172.215.347.422.527.635l.096.112c.21.25.427.508.63.774.404.531.783 1.128.995 1.834a.75.75 0 01-1.436.432c-.138-.46-.397-.89-.753-1.357a18.354 18.354 0 00-.582-.714l-.092-.11c-.18-.212-.37-.436-.555-.667C4.87 12.016 4 10.651 4 8.618 4 4.363 7.415 1 12 1s8 3.362 8 7.619c0 2.032-.87 3.397-1.755 4.5-.185.23-.375.454-.555.667l-.092.109c-.21.248-.405.481-.582.714-.356.467-.615.898-.753 1.357a.75.75 0 01-1.437-.432c.213-.706.592-1.303.997-1.834.202-.266.419-.524.63-.774l.095-.112c.18-.213.355-.42.527-.634.793-.99 1.425-2.025 1.425-3.561C18.5 5.243 15.81 2.5 12 2.5zM9.5 21.75a.75.75 0 01.75-.75h3.5a.75.75 0 010 1.5h-3.5a.75.75 0 01-.75-.75zM8.75 18a.75.75 0 000 1.5h6.5a.75.75 0 000-1.5h-6.5z"
     id="path1"
     style="fill:#1678c2;fill-opacity:1" />
  <path
     fill-rule="evenodd"
     clip-rule="evenodd"
     d="m 11.953405,3.1359244 c 0.1808,0 0.351782,0.082182 0.464737,0.2233523 l 4.761038,5.9512979 c 0.173838,0.2173416 0.173838,0.5261543 0,0.7435554 l -4.761038,5.951297 c -0.11295,0.141165 -0.283937,0.223352 -0.464737,0.223352 -0.1808,0 -0.35178,-0.08218 -0.464736,-0.223352 L 6.7276486,10.05413 c -0.1738785,-0.2174011 -0.1738785,-0.5262138 0,-0.7435554 L 11.488669,3.3592767 C 11.601631,3.2181068 11.772605,3.1359244 11.953405,3.1359244 Z M 8.7741453,9.7247849 11.953405,11.115662 15.132649,9.7247849 11.953405,8.5325613 Z m 5.9682757,1.4699111 -2.550488,1.115809 c -0.152055,0.06654 -0.325,0.06654 -0.477056,0 l -2.550488,-1.115809 2.789016,3.48627 z M 14.899298,8.3660377 12.162356,7.3397009 c -0.134738,-0.050522 -0.283163,-0.050522 -0.4179,0 L 9.0075436,8.3660377 11.953405,4.6837268 Z"
     fill="#000000"
     id="path1-7"
     style="stroke-width:0.595129" />
</svg>
