<?xml version="1.0" encoding="UTF-8" standalone="no"?>
<!-- Uploaded to: SVG Repo, www.svgrepo.com, Generator: SVG Repo Mixer Tools -->

<svg
   fill="#000000"
   width="800px"
   height="800px"
   viewBox="0 0 24 24"
   version="1.1"
   id="svg1"
   sodipodi:docname="logo4ico.svg"
   inkscape:version="1.3.2 (091e20e, 2023-11-25, custom)"
   inkscape:export-filename="logo_ico.png"
   inkscape:export-xdpi="96"
   inkscape:export-ydpi="96"
   xmlns:inkscape="http://www.inkscape.org/namespaces/inkscape"
   xmlns:sodipodi="http://sodipodi.sourceforge.net/DTD/sodipodi-0.dtd"
   xmlns="http://www.w3.org/2000/svg"
   xmlns:svg="http://www.w3.org/2000/svg">
  <defs
     id="defs1" />
  <sodipodi:namedview
     id="namedview1"
     pagecolor="#ffffff"
     bordercolor="#000000"
     borderopacity="0.25"
     inkscape:showpageshadow="2"
     inkscape:pageopacity="0.0"
     inkscape:pagecheckerboard="0"
     inkscape:deskcolor="#d1d1d1"
     inkscape:zoom="0.76062501"
     inkscape:cx="1012.9827"
     inkscape:cy="383.23746"
     inkscape:window-width="2560"
     inkscape:window-height="1494"
     inkscape:window-x="-11"
     inkscape:window-y="-11"
     inkscape:window-maximized="1"
     inkscape:current-layer="svg1" />
  <circle
     style="fill:#cccccc;stroke-width:0.731788"
     id="path2"
     cx="12.049302"
     cy="11.733772"
     r="11.615447" />
  <path
     fill-rule="evenodd"
     clip-rule="evenodd"
     d="m 11.969545,1.6546798 c 0.274782,0 0.534643,0.1249011 0.706312,0.3394533 l 7.23588,9.0448509 c 0.264201,0.330317 0.264201,0.799654 0,1.130062 l -7.23588,9.044849 c -0.171662,0.214544 -0.43153,0.339453 -0.706312,0.339453 -0.274782,0 -0.534639,-0.124899 -0.706311,-0.339453 L 4.0273814,12.169046 c -0.2642625,-0.330408 -0.2642625,-0.799745 0,-1.130062 L 11.263234,1.9941331 c 0.171681,-0.2145516 0.431529,-0.3394533 0.706311,-0.3394533 z m -4.8318748,10.0138242 4.8318748,2.113872 4.83185,-2.113872 -4.83185,-1.8119555 z m 9.0706528,2.233988 -3.87626,1.695819 c -0.231095,0.101129 -0.493939,0.101129 -0.725035,0 L 7.7307668,13.902492 11.969545,19.200964 Z M 16.446747,9.6034654 12.287111,8.0436266 c -0.204776,-0.076784 -0.430354,-0.076784 -0.635129,0 L 7.4923915,9.6034654 11.969545,4.0070473 Z"
     fill="#000000"
     id="path1-7"
     style="stroke-width:0.904484" />
</svg>
