<?xml version="1.0" encoding="UTF-8" standalone="no"?>
<!-- Uploaded to: SVG Repo, www.svgrepo.com, Generator: SVG Repo Mixer Tools -->

<svg
   aria-label="Ethereum"
   role="img"
   viewBox="0 0 512 512"
   version="1.1"
   id="svg5"
   sodipodi:docname="ethereum-svgrepo-com.svg"
   xml:space="preserve"
   inkscape:version="1.3.2 (091e20e, 2023-11-25, custom)"
   xmlns:inkscape="http://www.inkscape.org/namespaces/inkscape"
   xmlns:sodipodi="http://sodipodi.sourceforge.net/DTD/sodipodi-0.dtd"
   xmlns="http://www.w3.org/2000/svg"
   xmlns:svg="http://www.w3.org/2000/svg"><defs
     id="defs5" /><sodipodi:namedview
     id="namedview5"
     pagecolor="#ffffff"
     bordercolor="#000000"
     borderopacity="0.25"
     inkscape:showpageshadow="2"
     inkscape:pageopacity="0.0"
     inkscape:pagecheckerboard="0"
     inkscape:deskcolor="#d1d1d1"
     inkscape:zoom="1.1884766"
     inkscape:cx="323.52342"
     inkscape:cy="214.9811"
     inkscape:window-width="2560"
     inkscape:window-height="1494"
     inkscape:window-x="-11"
     inkscape:window-y="-11"
     inkscape:window-maximized="1"
     inkscape:current-layer="svg5" /><rect
     width="300.36774"
     height="300.36774"
     rx="8.7998362%"
     fill="#ffffff"
     id="rect1"
     x="113.70958"
     y="57.358009"
     style="stroke-width:0.586656" /><path
     fill="#3c3c3b"
     d="m 263.89344,269.72736 v 62.77216 l 76.85189,-108.5313 z"
     id="path1"
     style="stroke-width:0.586656;fill:#000000" /><path
     fill="#343434"
     d="m 263.89344,81.410876 76.85189,127.890954 -76.85189,45.75914 -77.43856,-45.75914"
     id="path2"
     style="stroke-width:0.586656;fill:#000000" /><path
     fill="#8c8c8c"
     d="m 263.89344,81.410876 v 92.691604 l -77.43856,35.19935 m 0,14.66639 77.43856,45.75914 v 62.77216"
     id="path3"
     style="stroke-width:0.586656;fill:#000000" /><path
     fill="#141414"
     d="m 263.89344,174.10248 v 80.95849 l 76.85189,-45.75914"
     id="path4"
     style="stroke-width:0.586656" /><path
     fill="#393939"
     d="m 186.45488,209.30183 77.43856,-35.19935 v 80.95849"
     id="path5"
     style="stroke-width:0.586656;fill:#000000" /><g
     style="fill:#000000"
     id="g5"
     transform="matrix(19.55519,0,0,19.55519,30.880563,24.793236)"><path
       fill-rule="evenodd"
       d="m 12,2.5 c -3.81,0 -6.5,2.743 -6.5,6.119 0,1.536 0.632,2.572 1.425,3.56 0.172,0.215 0.347,0.422 0.527,0.635 l 0.096,0.112 c 0.21,0.25 0.427,0.508 0.63,0.774 0.404,0.531 0.783,1.128 0.995,1.834 A 0.75,0.75 0 0 1 7.737,15.966 C 7.599,15.506 7.34,15.076 6.984,14.609 A 18.354,18.354 0 0 0 6.402,13.895 L 6.31,13.785 C 6.13,13.573 5.94,13.349 5.755,13.118 4.87,12.016 4,10.651 4,8.618 4,4.363 7.415,1 12,1 c 4.585,0 8,3.362 8,7.619 0,2.032 -0.87,3.397 -1.755,4.5 -0.185,0.23 -0.375,0.454 -0.555,0.667 l -0.092,0.109 c -0.21,0.248 -0.405,0.481 -0.582,0.714 -0.356,0.467 -0.615,0.898 -0.753,1.357 a 0.75026545,0.75026545 0 0 1 -1.437,-0.432 c 0.213,-0.706 0.592,-1.303 0.997,-1.834 0.202,-0.266 0.419,-0.524 0.63,-0.774 l 0.095,-0.112 c 0.18,-0.213 0.355,-0.42 0.527,-0.634 C 17.868,11.19 18.5,10.155 18.5,8.619 18.5,5.243 15.81,2.5 12,2.5 Z M 9.5,21.75 A 0.75,0.75 0 0 1 10.25,21 h 3.5 a 0.75,0.75 0 0 1 0,1.5 h -3.5 A 0.75,0.75 0 0 1 9.5,21.75 Z M 8.75,18 a 0.75,0.75 0 0 0 0,1.5 h 6.5 a 0.75,0.75 0 0 0 0,-1.5 z"
       id="path1-2" /></g></svg>
